<svg xmlns="http://www.w3.org/2000/svg" viewBox="0 0 435.09 167.2"><path d="M434.93,60.58,429.33,36v-.11a2.32,2.32,0,0,0-.16-.44,2,2,0,0,0-.1-.21v-.09a3.37,3.37,0,0,0-.28-.38l-.06-.09h0L409.94,13.52a3.09,3.09,0,0,0-1-.76L384.09,1.22H384l-.32-.12L383.41,1h-.52L361.05,0a3.47,3.47,0,0,0-.91.09L330.25,7.51l-.11,0a3.54,3.54,0,0,0-.57.22l-.18.1a3,3,0,0,0-.53.4h-.06l-23.71,23.5L305,32a2.88,2.88,0,0,0-.27.34l-.13.23c0,.08-.1.15-.14.23v.11a2.41,2.41,0,0,0-.08.25,2.22,2.22,0,0,0-.09.37,1,1,0,0,0,0,.25v.39a.29.29,0,0,1,0,.13l2.48,24.55a3.06,3.06,0,0,0,2,2.54l21.11,7.82,12.58,19.69s.06,0,.08.09,0,.09.08.14.14.13.2.2a2.49,2.49,0,0,0,.23.23l.36.26.26.16a4.22,4.22,0,0,0,.45.18l.25.08a3,3,0,0,0,.72.09h22.58L387,110.74a3.11,3.11,0,0,0,2.29,1,3.21,3.21,0,0,0,1.18-.22,3,3,0,0,0,1.94-2.9l-.51-16.77,3.28-8,22,2.65a3.12,3.12,0,0,0,3-1.39l14.44-22.24a3,3,0,0,0,.4-2.29ZM405.64,18l12.9,14.62-30.06-5.38L386.24,9Zm-19.89,14.9,31.12,5.57L379,59.63Zm-3.36-4.13L350.63,40.69,380.2,10.9ZM372.17,61.25,347.63,48.33l30.71-11.54ZM361.24,6.09l14.45.61L341.3,41.35l-6.57-28.67Zm-32,10.49,5.91,25.79-22.41-9.44ZM312.71,56.34,310.94,38.8l24.59,10.35L330.1,62.78Zm22.65,10,5.79-14.54,27.33,14.39L345.88,82.8Zm35.89,18.83a3.11,3.11,0,0,0-2.29-1H354.35l17.22-12.66,1.36,3.3h0L380.6,95Zm44.62-5-22.39-2.7a3.13,3.13,0,0,0-3.28,1.88l-4.42,10.71a2.66,2.66,0,0,0-.17.63l-6.33-16.6h.05L377.24,69l44.38,2.37Zm9.57-14.74-40.52-2.17,39.24-21.94,4.41,19.3Z" transform="translate(-0.01 0.01)" style="fill:#492eff"/><path d="M14.82,159.62H68.14V87L37.06,119.15,6,87v76.93l-4.15-.14V81H6l31.07,32.17L68.14,81h4.15v82.94l-57.46-.14Z" transform="translate(-0.01 0.01)" style="fill:#492eff;stroke:#492eff;stroke-width:3.680000066757202px"/><path d="M152.13,155.48q-7.6,9.87-24.87,9.87t-24.72-10.16q-7.47-10.14-7.46-32.74t7.46-32.75Q110,79.55,127.26,79.55q20,0,27.21,13.58l-33.84,29.32h-6.49l35-30.18q-6.09-8.43-21.83-8.43a36.73,36.73,0,0,0-11.6,1.57A20.3,20.3,0,0,0,107,91q-3.87,4-5.8,11.87a82.2,82.2,0,0,0-1.94,19.59,84.42,84.42,0,0,0,1.94,19.73q1.93,7.73,5.8,11.87a22.4,22.4,0,0,0,8.7,5.58,40.2,40.2,0,0,0,11.6,1.43q15.75,0,21.83-8.44Z" transform="translate(-0.01 0.01)" style="fill:#492eff;stroke:#492eff;stroke-width:3.680000066757202px"/><path d="M187.21,159.62h53.31V87l-31.08,32.17L178.37,87v76.93l-4.15-.14V81h4.15l31.07,32.17L240.52,81h4.15v82.94l-57.46-.14Z" transform="translate(-0.01 0.01)" style="fill:#492eff;stroke:#492eff;stroke-width:3.680000066757202px"/><path d="M311.24,85.41a43.71,43.71,0,0,0-23.2,0,20.33,20.33,0,0,0-8.7,5.58q-3.87,4-5.8,11.87a82.2,82.2,0,0,0-1.94,19.59,84.42,84.42,0,0,0,1.94,19.73q1.92,7.73,5.8,11.87a22.4,22.4,0,0,0,8.7,5.58,47.68,47.68,0,0,0,23.2,0,21.19,21.19,0,0,0,8.57-5.58q4-4.14,5.94-11.87a84.41,84.41,0,0,0,1.93-19.73,82.71,82.71,0,0,0-1.93-19.59Q323.81,95,319.81,91A19.36,19.36,0,0,0,311.24,85.41Zm13.13,69.78q-7.47,10.16-24.73,10.16t-24.72-10.16q-7.47-10.14-7.46-32.74t7.46-32.75q7.45-10.15,24.72-10.15T324.37,89.7q7.45,10.15,7.46,32.75T324.37,155.19Z" transform="translate(-0.01 0.01)" style="fill:#492eff;stroke:#492eff;stroke-width:3.680000066757202px"/></svg>