<?xml version="1.0" encoding="UTF-8" standalone="no"?>
<svg
   xmlns:dc="http://purl.org/dc/elements/1.1/"
   xmlns:cc="http://creativecommons.org/ns#"
   xmlns:rdf="http://www.w3.org/1999/02/22-rdf-syntax-ns#"
   xmlns:svg="http://www.w3.org/2000/svg"
   xmlns="http://www.w3.org/2000/svg"
   xmlns:sodipodi="http://sodipodi.sourceforge.net/DTD/sodipodi-0.dtd"
   xmlns:inkscape="http://www.inkscape.org/namespaces/inkscape"
   width="445.00827"
   height="177.19247"
   viewBox="0 0 445.00827 177.19247"
   version="1.1"
   id="SVGRoot"
   sodipodi:docname="memo_no_bg_dark.svg"
   inkscape:version="1.0.1 (3bc2e813f5, 2020-09-07)">
  <defs
     id="defs1976">
    <rect
       x="195"
       y="205"
       width="205"
       height="60"
       id="rect856" />
    <rect
       x="260"
       y="200"
       width="216.31473"
       height="104.79695"
       id="rect2593" />
    <rect
       x="210"
       y="210"
       width="175"
       height="70"
       id="rect2586" />
  </defs>
  <sodipodi:namedview
     id="base"
     pagecolor="#ffffff"
     bordercolor="#666666"
     borderopacity="1.0"
     inkscape:pageopacity="0.0"
     inkscape:pageshadow="2"
     inkscape:zoom="1.4"
     inkscape:cx="17.474902"
     inkscape:cy="-60.451034"
     inkscape:document-units="px"
     inkscape:current-layer="layer2"
     inkscape:document-rotation="0"
     showgrid="true"
     inkscape:window-width="1920"
     inkscape:window-height="1017"
     inkscape:window-x="-8"
     inkscape:window-y="-8"
     inkscape:window-maximized="1"
     lock-margins="true"
     fit-margin-top="5"
     fit-margin-left="5"
     fit-margin-right="5"
     fit-margin-bottom="5">
    <inkscape:grid
       type="xygrid"
       id="grid2546"
       originx="-97.096128"
       originy="-360.09597" />
  </sodipodi:namedview>
  <metadata
     id="metadata1979">
    <rdf:RDF>
      <cc:Work
         rdf:about="">
        <dc:format>image/svg+xml</dc:format>
        <dc:type
           rdf:resource="http://purl.org/dc/dcmitype/StillImage" />
        <dc:title />
      </cc:Work>
    </rdf:RDF>
  </metadata>
  <g
     inkscape:label="Layer 1"
     inkscape:groupmode="layer"
     id="layer1"
     transform="translate(-29.365376,-117.032)">
    <text
       xml:space="preserve"
       id="text2584"
       style="font-size:40px;line-height:1.25;font-family:sans-serif;-inkscape-font-specification:sans-serif;letter-spacing:0px;word-spacing:0px;white-space:pre;shape-inside:url(#rect2586);" />
    <text
       xml:space="preserve"
       id="text854"
       style="font-size:40px;line-height:1.25;font-family:sans-serif;-inkscape-font-specification:sans-serif;letter-spacing:0px;word-spacing:0px;white-space:pre;shape-inside:url(#rect856);fill:#ffffff;fill-opacity:1;stroke:#ffffff;stroke-width:0.999869;stroke-miterlimit:4;stroke-dasharray:none;stroke-opacity:1;"
       transform="matrix(3.6188532,0,0,3.7465887,-682.59211,-618.82213)"><tspan
         x="195"
         y="241.49321"><tspan
           style="font-style:normal;font-variant:normal;font-weight:normal;font-stretch:normal;font-size:38.1684px;font-family:Megrim;-inkscape-font-specification:'Megrim, Normal';font-variant-ligatures:normal;font-variant-caps:normal;font-variant-numeric:normal;font-variant-east-asian:normal;fill:#ffffff;fill-opacity:1;stroke:#ffffff;stroke-width:0.999869;stroke-miterlimit:4;stroke-dasharray:none;stroke-opacity:1">memo</tspan></tspan></text>
  </g>
  <g
     inkscape:groupmode="layer"
     id="layer2"
     inkscape:label="Layer 2"
     transform="translate(-29.365376,-117.032)">
    <g
       id="g880"
       transform="translate(188.8643,244.49645)" />
    <g
       id="g862"
       transform="translate(313.146,159.543)"
       style="fill:#ffffff;fill-opacity:1">
      <path
         d="M 156.15318,23.072038 150.54913,-1.4763623 C 150.53977,-1.5128015 150.5195,-1.5462049 150.51013,-1.5841631 150.47115,-1.7359969 150.41344,-1.8832749 150.34793,-2.0305528 150.31674,-2.1003966 150.28866,-2.1717582 150.25123,-2.2400829 150.23563,-2.2689315 150.22628,-2.3008171 150.21067,-2.3296646 150.12802,-2.4693509 150.02819,-2.5908182 149.92837,-2.7122844 149.90497,-2.7396152 149.89406,-2.7699817 149.87066,-2.7957924 L 149.84415,-2.8261601 C 149.84258,-2.8276779 149.84102,-2.8291958 149.83947,-2.8307148 L 131.15568,-23.987159 C 130.87338,-24.307527 130.52556,-24.565644 130.13563,-24.747844 L 105.31283,-36.287171 C 105.27851,-36.302354 105.24108,-36.309946 105.20676,-36.32361 105.10227,-36.367642 104.99308,-36.404082 104.88547,-36.435967 104.79812,-36.461778 104.71389,-36.48759 104.62499,-36.50581 104.51269,-36.530104 104.39727,-36.542251 104.28342,-36.554397 104.22259,-36.560471 104.16488,-36.577172 104.10405,-36.580209 L 82.266537,-37.50791 C 81.954597,-37.521575 81.653569,-37.489689 81.35722,-37.41681 L 51.471597,-29.984573 C 51.431045,-29.973944 51.396731,-29.951169 51.356179,-29.939022 51.154976,-29.881326 50.964691,-29.806927 50.785325,-29.71431 50.722935,-29.682424 50.665227,-29.649021 50.605957,-29.614099 50.414113,-29.498706 50.237865,-29.366611 50.078776,-29.216296 50.060059,-29.199594 50.036663,-29.188966 50.017947,-29.170747 L 26.311896,-5.6715146 C 26.272903,-5.6335562 26.246388,-5.586488 26.212074,-5.5470114 26.113812,-5.4392097 26.01711,-5.3268531 25.934446,-5.2038682 25.886094,-5.1325066 25.848662,-5.0565899 25.806549,-4.9821916 25.762877,-4.9032384 25.709847,-4.8318767 25.673974,-4.7498868 25.658377,-4.7134468 25.652138,-4.6754884 25.6381,-4.6390485 25.605347,-4.5555403 25.580392,-4.4720319 25.555436,-4.385487 25.519563,-4.262502 25.486808,-4.1410355 25.466533,-4.0180502 25.454054,-3.9360601 25.446256,-3.8540711 25.438457,-3.770562 25.429099,-3.6384673 25.425979,-3.5094095 25.433778,-3.3773148 25.435338,-3.3332829 25.42754,-3.289251 25.432218,-3.245219 L 27.912159,21.300143 C 28.027579,22.446485 28.801195,23.430364 29.907031,23.840313 L 51.014601,31.658207 63.603028,51.350979 C 63.623309,51.382865 63.654503,51.40564 63.674773,51.437524 63.705967,51.483075 63.727804,51.53318 63.762121,51.577212 63.821386,51.653128 63.894698,51.707787 63.958642,51.777631 64.035066,51.859621 64.108378,51.941611 64.192603,52.014491 64.306467,52.111664 64.42812,52.192136 64.552896,52.272607 64.637121,52.325749 64.716668,52.383446 64.807127,52.430514 64.952185,52.504912 65.105032,52.556536 65.261002,52.60664 65.343671,52.635489 65.421651,52.67041 65.507443,52.691667 65.746071,52.749364 65.989389,52.782767 66.234263,52.784285 66.240497,52.784285 66.245187,52.785804 66.251421,52.785804 H 88.809519 L 108.13903,73.205857 C 108.74264,73.842038 109.57864,74.185182 110.43336,74.185182 110.82953,74.185182 111.23037,74.112301 111.61095,73.960469 112.8166,73.482193 113.59177,72.325225 113.55122,71.058935 L 113.03496,54.290471 116.31503,46.337446 138.28668,48.988454 C 139.50638,49.143324 140.66213,48.59217 141.30785,47.597662 L 155.74609,25.358646 C 156.18437,24.675396 156.33254,23.855496 156.15318,23.072038 Z M 126.854,-19.543 139.75749,-4.9305683 109.70185,-10.308502 107.45587,-28.560377 Z M 106.96457,-4.6223469 138.08704,0.94689629 100.22193,22.118524 Z M 103.61118,-8.7476561 71.850781,3.1864366 101.41355,-26.603246 Z M 93.390399,23.744659 68.845217,10.825168 99.555929,-0.71415964 Z M 82.455257,-31.420914 96.912226,-30.805991 62.520593,3.8453933 55.947968,-24.829833 Z M 50.448427,-20.929238 56.361292,4.859639 33.948242,-4.5737602 Z M 33.932645,18.831335 32.159253,1.29004 56.743421,11.638994 51.318745,25.272101 Z M 56.579652,28.865994 62.367734,14.321887 89.701678,28.711124 67.096783,45.318644 Z M 92.471725,47.687244 C 91.880593,47.063208 91.049267,46.707919 90.17739,46.707919 H 75.562895 L 92.788343,34.049581 94.143734,37.350436 94.134377,37.353473 101.8066,57.550331 Z M 137.09038,42.720778 114.69917,40.019665 C 113.29387,39.838982 111.94783,40.622442 111.4191,41.900878 L 107.00199,52.612714 C 106.91777,52.817688 106.86006,53.028737 106.82419,53.24434 L 100.49489,36.585196 100.54323,36.565458 98.456337,31.486636 142.84104,33.859789 Z M 146.65921,27.982325 106.13792,25.815664 145.38025,3.872723 149.78487,23.167692 Z"
         id="path860"
         style="fill:#ffffff;fill-opacity:1;stroke-width:1.53889" />
    </g>
  </g>
  <g
     inkscape:groupmode="layer"
     id="layer3"
     inkscape:label="Layer 3"
     transform="translate(-29.365376,-117.032)">
    <text
       xml:space="preserve"
       id="text2591"
       style="font-style:normal;font-variant:normal;font-weight:normal;font-stretch:normal;font-size:23.9846px;line-height:0;font-family:Megrim;-inkscape-font-specification:Megrim;letter-spacing:0px;word-spacing:0px;white-space:pre;shape-inside:url(#rect2593);"
       transform="matrix(3.2205052,0,0,3.0772258,-651.79144,-402.6581)" />
  </g>
</svg>
