<svg id="SVGRoot" xmlns="http://www.w3.org/2000/svg" viewBox="0 0 435.01 167.19"><defs><style>.cls-1,.cls-2,.cls-3{fill:#fff;}.cls-2{stroke:#fff;}.cls-2,.cls-3{stroke-width:3.68px;}.cls-3{stroke:#fffbff;}</style></defs><path class="cls-1" d="M439.93,65.59,434.33,41s0-.07,0-.11a2.6,2.6,0,0,0-.16-.44,2,2,0,0,0-.1-.21.36.36,0,0,0,0-.09,2.66,2.66,0,0,0-.28-.38.47.47,0,0,0-.06-.09l0,0h0L414.94,18.53a3.06,3.06,0,0,0-1-.76L389.09,6.23l-.1,0-.32-.12L388.41,6l-.35,0-.17,0L366.05,5a3.43,3.43,0,0,0-.91.09l-29.89,7.43-.11.05a3.54,3.54,0,0,0-.57.22l-.18.1a3.07,3.07,0,0,0-.53.4l-.06,0-23.71,23.5L310,37a2.88,2.88,0,0,0-.27.34l-.13.23c0,.08-.1.15-.14.23l0,.11a2.41,2.41,0,0,0-.08.25,2.83,2.83,0,0,0-.09.37,1.9,1.9,0,0,0,0,.25c0,.13,0,.26,0,.39a.56.56,0,0,1,0,.13l2.48,24.55a3.06,3.06,0,0,0,2,2.54l21.11,7.82,12.58,19.69s.06,0,.08.09.05.09.08.14.14.13.2.2.15.16.23.23a4.06,4.06,0,0,0,.36.26l.26.16a3.52,3.52,0,0,0,.45.18l.25.08a3,3,0,0,0,.72.09h22.58l19.33,20.42a3.14,3.14,0,0,0,2.29,1,3.21,3.21,0,0,0,1.18-.22,3,3,0,0,0,1.94-2.9l-.51-16.77,3.28-8,22,2.65a3.13,3.13,0,0,0,3-1.39l14.44-22.24a3,3,0,0,0,.4-2.29ZM410.64,23l12.9,14.62-30.06-5.38L391.24,14ZM390.75,37.9l31.12,5.57L384,64.64Zm-3.36-4.13L355.63,45.7,385.2,15.91ZM377.17,66.26,352.63,53.34,383.34,41.8ZM366.24,11.1l14.45.61L346.3,46.36l-6.57-28.67Zm-32,10.49,5.91,25.79-22.41-9.44ZM317.71,61.35l-1.77-17.54,24.59,10.35L335.1,67.79Zm22.65,10,5.79-14.54,27.33,14.39-22.6,16.61Zm35.89,18.83a3.13,3.13,0,0,0-2.29-1H359.35l17.22-12.66,1.36,3.3h0l7.67,20.2Zm44.62-5-22.39-2.7a3.12,3.12,0,0,0-3.28,1.88l-4.42,10.71a3,3,0,0,0-.17.63L384.28,79.1l.05,0L382.24,74l44.38,2.37Zm9.57-14.74-40.52-2.17,39.24-21.94,4.41,19.3Z" transform="translate(-5 -5.01)"/><path class="cls-2" d="M19.82,164.63H73.14V92L42.06,124.16,11,92v76.93l-4.15-.14V86H11l31.07,32.17L73.14,86h4.15v82.94l-57.46-.14Z" transform="translate(-5 -5.01)"/><path class="cls-2" d="M157.13,160.49q-7.6,9.87-24.87,9.87T107.54,160.2q-7.47-10.14-7.46-32.74t7.46-32.75Q115,84.56,132.26,84.56q20,0,27.21,13.58l-33.84,29.32h-6.49l35-30.18q-6.09-8.43-21.83-8.43a36.88,36.88,0,0,0-11.6,1.57A20.3,20.3,0,0,0,112,96q-3.87,4-5.8,11.87a82.39,82.39,0,0,0-1.94,19.59,84.31,84.31,0,0,0,1.94,19.73q1.94,7.73,5.8,11.87a22.37,22.37,0,0,0,8.7,5.58,40.47,40.47,0,0,0,11.6,1.43q15.75,0,21.83-8.44Z" transform="translate(-5 -5.01)"/><path class="cls-2" d="M192.21,164.63h53.31V92l-31.08,32.17L183.37,92v76.93l-4.15-.14V86h4.15l31.07,32.17L245.52,86h4.15v82.94l-57.46-.14Z" transform="translate(-5 -5.01)"/><path class="cls-3" d="M316.24,90.42a43.64,43.64,0,0,0-23.2,0,20.3,20.3,0,0,0-8.7,5.58q-3.87,4-5.8,11.87a82.39,82.39,0,0,0-1.94,19.59,84.31,84.31,0,0,0,1.94,19.73q1.92,7.73,5.8,11.87a22.37,22.37,0,0,0,8.7,5.58,47.76,47.76,0,0,0,23.2,0,21.25,21.25,0,0,0,8.57-5.58q4-4.14,5.94-11.87a84.37,84.37,0,0,0,1.93-19.73,82.45,82.45,0,0,0-1.93-19.59Q328.81,100,324.81,96A19.36,19.36,0,0,0,316.24,90.42Zm13.13,69.78q-7.47,10.16-24.73,10.16T279.92,160.2q-7.47-10.14-7.46-32.74t7.46-32.75q7.45-10.15,24.72-10.15t24.73,10.15q7.45,10.16,7.46,32.75T329.37,160.2Z" transform="translate(-5 -5.01)"/></svg>