<?xml version="1.0" encoding="UTF-8"?>
<svg id="SVGRoot" width="445.01" height="177.19" version="1.1" viewBox="0 0 445.01 177.19" xmlns="http://www.w3.org/2000/svg" xmlns:cc="http://creativecommons.org/ns#" xmlns:dc="http://purl.org/dc/elements/1.1/" xmlns:rdf="http://www.w3.org/1999/02/22-rdf-syntax-ns#">
 <metadata>
  <rdf:RDF>
   <cc:Work rdf:about="">
    <dc:format>image/svg+xml</dc:format>
    <dc:type rdf:resource="http://purl.org/dc/dcmitype/StillImage"/>
    <dc:title/>
   </cc:Work>
  </rdf:RDF>
 </metadata>
 <g transform="translate(-29.365 -117.03)" fill="#fff">
  <path d="m469.3 182.62-5.604-24.548c-0.00936-0.03644-0.02963-0.06984-0.039-0.1078-0.03898-0.15184-0.09669-0.29911-0.1622-0.44639-0.03119-0.06985-0.05927-0.14121-0.0967-0.20953-0.0156-0.02885-0.02495-0.06074-0.04056-0.08958-0.08265-0.13969-0.18248-0.26116-0.2823-0.38262-0.0234-0.02734-0.03431-0.0577-0.05771-0.08351l-0.02651-0.03037c-0.00157-0.00152-0.00313-0.00304-0.00468-0.00455l-18.684-21.156c-0.2823-0.32037-0.63012-0.57848-1.02-0.76068l-24.823-11.539c-0.03432-0.01518-0.07175-0.02278-0.10607-0.03644-0.10449-0.04403-0.21368-0.08047-0.32129-0.11236-0.08735-0.02581-0.17158-0.05162-0.26048-0.06984-0.1123-0.02429-0.22772-0.03644-0.34157-0.04859-0.06083-0.00607-0.11854-0.02277-0.17937-0.02581l-21.838-0.9277c-0.31194-0.01366-0.61297 0.01822-0.90932 0.0911l-29.886 7.4322c-0.04056 0.01063-0.07487 0.0334-0.11542 0.04555-0.2012 0.05769-0.39149 0.13209-0.57085 0.22471-0.06239 0.03189-0.1201 0.06529-0.17937 0.10021-0.19185 0.11539-0.36809 0.24749-0.52718 0.3978-0.01872 0.01671-0.04212 0.02733-0.06083 0.04555l-23.706 23.499c-0.039 0.03795-0.06551 0.08502-0.09983 0.1245-0.09826 0.1078-0.19496 0.22016-0.27762 0.34314-0.04836 0.07136-0.08579 0.14728-0.1279 0.22168-0.04367 0.07895-0.0967 0.15031-0.13258 0.2323-0.01559 0.03644-0.02183 0.0744-0.03587 0.11084-0.03275 0.08351-0.05771 0.16702-0.08266 0.25356-0.03588 0.12299-0.06863 0.24445-0.08891 0.36744-0.01248 0.08199-0.02027 0.16398-0.02807 0.24749-0.00936 0.13209-0.01248 0.26115-0.00468 0.39325 0.00156 0.04403-0.00624 0.08806-0.00156 0.13209l2.4799 24.545c0.11542 1.1463 0.88904 2.1302 1.9949 2.5402l21.108 7.8179 12.588 19.693c0.02028 0.03189 0.05147 0.05466 0.07174 0.08654 0.0312 0.04555 0.05303 0.09566 0.08735 0.13969 0.05927 0.07592 0.13258 0.13058 0.19652 0.20042 0.07643 0.08199 0.14974 0.16398 0.23396 0.23686 0.11387 0.09717 0.23552 0.17765 0.3603 0.25812 0.08422 0.05314 0.16377 0.11084 0.25423 0.1579 0.14505 0.0744 0.2979 0.12603 0.45387 0.17613 0.08267 0.02885 0.16065 0.06377 0.24644 0.08503 0.23863 0.05769 0.48195 0.0911 0.72682 0.09262 0.00624 0 0.01093 0.00151 0.01716 0.00151h22.558l19.33 20.42c0.60361 0.63618 1.4396 0.97932 2.2943 0.97932 0.39617 0 0.79701-0.07288 1.1776-0.22471 1.2056-0.47828 1.9808-1.6352 1.9403-2.9015l-0.51626-16.768 3.2801-7.953 21.972 2.651c1.2197 0.15487 2.3754-0.39628 3.0212-1.3908l14.438-22.239c0.43828-0.68325 0.58645-1.5032 0.40709-2.2866zm-29.299-42.615 12.903 14.612-30.056-5.3779-2.246-18.252zm-19.889 14.921 31.122 5.5692-37.865 21.172zm-3.3534-4.1253-31.76 11.934 29.563-29.79zm-10.221 32.492-24.545-12.919 30.711-11.539zm-10.935-55.166 14.457 0.61492-34.392 34.651-6.5726-28.675zm-32.007 10.492 5.9129 25.789-22.413-9.4334zm-16.516 39.761-1.7734-17.541 24.584 10.349-5.4247 13.633zm22.647 10.035 5.7881-14.544 27.334 14.389-22.605 16.608zm35.892 18.821c-0.59113-0.62403-1.4224-0.97932-2.2943-0.97932h-14.614l17.225-12.658 1.3554 3.3009-0.00935 0.00303 7.6722 20.197zm44.619-4.9665-22.391-2.7011c-1.4053-0.18068-2.7513 0.60278-3.2801 1.8812l-4.4171 10.712c-0.08422 0.20498-0.14193 0.41603-0.1778 0.63163l-6.3293-16.659 0.04834-0.01974-2.0869-5.0788 44.385 2.3732zm9.5688-14.738-40.521-2.1667 39.242-21.943 4.4046 19.295z" stroke-width="1.5389"/>
  <g stroke="#fff" stroke-width="3.6817">
   <path d="m49.19 281.66h53.317v-72.645l-31.078 32.175-31.078-32.175v76.935l-4.1438-0.14301v-82.798h4.1438l31.078 32.175 31.078-32.175h4.1438v82.941l-57.46-0.14301z" style="font-variant-caps:normal;font-variant-east-asian:normal;font-variant-ligatures:normal;font-variant-numeric:normal;white-space:pre"/>
   <path d="m186.49 277.52q-7.5969 9.8671-24.863 9.8671t-24.725-10.153q-7.4588-10.153-7.4588-32.747 0-22.594 7.4588-32.747 7.4588-10.153 24.725-10.153 20.028 0 27.211 13.585l-33.841 29.315h-6.4919l34.946-30.173q-6.0775-8.4371-21.824-8.4371-6.9063 0-11.603 1.573-4.6963 1.43-8.7019 5.5771-3.8675 4.004-5.8013 11.869-1.9337 7.7221-1.9337 19.591 0 11.869 1.9337 19.734 1.9338 7.7221 5.8013 11.869 4.0056 4.0041 8.7019 5.5771 4.6963 1.43 11.603 1.43 15.746 0 21.824-8.4371z" style="font-variant-caps:normal;font-variant-east-asian:normal;font-variant-ligatures:normal;font-variant-numeric:normal;white-space:pre"/>
   <path d="m221.57 281.66h53.317v-72.645l-31.078 32.175-31.078-32.175v76.935l-4.1438-0.14301v-82.798h4.1438l31.078 32.175 31.078-32.175h4.1438v82.941l-57.46-0.14301z" style="font-variant-caps:normal;font-variant-east-asian:normal;font-variant-ligatures:normal;font-variant-numeric:normal;white-space:pre"/>
  </g>
  <path d="m345.61 207.45q-4.6963-1.573-11.603-1.573-6.9063 0-11.603 1.573-4.6963 1.43-8.7019 5.5771-3.8675 4.004-5.8013 11.869-1.9338 7.7221-1.9338 19.591 0 11.869 1.9338 19.734 1.9337 7.7221 5.8013 11.869 4.0056 4.0041 8.7019 5.5771 4.6963 1.43 11.603 1.43 6.9063 0 11.603-1.43 4.6963-1.573 8.5638-5.5771 4.0056-4.147 5.9394-11.869 1.9338-7.8651 1.9338-19.734 0-11.869-1.9338-19.591-1.9338-7.8651-5.9394-11.869-3.8675-4.147-8.5638-5.5771zm13.122 69.785q-7.4588 10.153-24.725 10.153-17.266 0-24.725-10.153-7.4588-10.153-7.4588-32.747 0-22.594 7.4588-32.747 7.4588-10.153 24.725-10.153 17.266 0 24.725 10.153 7.4588 10.153 7.4588 32.747 0 22.594-7.4588 32.747z" stroke="#fffbff" stroke-width="3.6817" style="font-variant-caps:normal;font-variant-east-asian:normal;font-variant-ligatures:normal;font-variant-numeric:normal;white-space:pre"/>
 </g>
</svg>
